<svg width="17" height="17" viewBox="0 0 17 17" fill="none" xmlns="http://www.w3.org/2000/svg">
<g clip-path="url(#clip0_95_1450)">
<path d="M8.5 16.9128C3.86205 16.9128 0.0871811 13.1379 0.0871811 8.49998C0.0871811 3.86203 3.86205 0.0871582 8.5 0.0871582C13.1379 0.0871582 16.9128 3.86203 16.9128 8.49998C16.9128 13.1379 13.1379 16.9128 8.5 16.9128ZM8.5 0.540491C4.11487 0.540491 0.540514 4.11485 0.540514 8.49998C0.540514 12.8851 4.11487 16.4595 8.5 16.4595C12.8851 16.4595 16.4595 12.8851 16.4595 8.49998C16.4595 4.11485 12.8938 0.540491 8.5 0.540491Z" fill="#F26F55"/>
<path d="M8.5 17C3.80974 17 0 13.1903 0 8.5C0 3.80974 3.80974 0 8.5 0C13.1903 0 17 3.80974 17 8.5C17 13.1903 13.1903 17 8.5 17ZM8.5 0.174359C3.90564 0.174359 0.174359 3.90564 0.174359 8.5C0.174359 13.0944 3.91436 16.8256 8.50872 16.8256C13.1031 16.8256 16.8344 13.0856 16.8344 8.5C16.8344 3.91436 13.0944 0.174359 8.5 0.174359ZM8.5 16.5467C4.06256 16.5467 0.453333 12.9374 0.453333 8.5C0.453333 4.06256 4.06256 0.453333 8.5 0.453333C12.9374 0.453333 16.5467 4.06256 16.5467 8.5C16.5467 12.9374 12.9374 16.5467 8.5 16.5467ZM8.5 0.627692C4.15846 0.627692 0.627692 4.15846 0.627692 8.5C0.627692 12.8415 4.15846 16.3723 8.5 16.3723C12.8415 16.3723 16.3723 12.8415 16.3723 8.5C16.3723 4.15846 12.8415 0.627692 8.5 0.627692Z" fill="#F26F55"/>
<path d="M9.89487 11.2722C10.1651 11.1066 10.3918 10.8886 10.5749 10.6184C10.7144 10.4179 10.9323 10.2871 11.1764 10.2871C11.5164 10.2871 11.7344 10.6707 11.5513 10.9497C11.3072 11.3332 10.9933 11.6471 10.6097 11.8912C10.0169 12.2661 9.33692 12.4579 8.5523 12.4579C7.76769 12.4579 7.00923 12.2312 6.39025 11.7779C5.76256 11.3245 5.33538 10.723 5.1 9.96453H4.42C4.23692 9.96453 4.08871 9.81633 4.08871 9.63325C4.08871 9.45017 4.23692 9.30197 4.42 9.30197H4.95179C4.93436 9.11889 4.91692 8.94453 4.91692 8.76145C4.91692 8.57838 4.92564 8.42145 4.95179 8.25581H4.42C4.23692 8.25581 4.08871 8.10761 4.08871 7.92453C4.08871 7.74145 4.23692 7.59325 4.42 7.59325H5.09128C5.23948 7.08761 5.48359 6.64299 5.82359 6.2594C6.16359 5.87581 6.56461 5.5794 7.02666 5.36145C7.48871 5.1435 8.00307 5.04761 8.5523 5.04761C9.33692 5.04761 10.0256 5.2394 10.6097 5.62299C11.002 5.87581 11.3159 6.19838 11.5687 6.59068C11.7518 6.87838 11.5338 7.24453 11.2026 7.24453C10.9497 7.24453 10.7231 7.11376 10.5836 6.90453C10.4005 6.63427 10.1826 6.42504 9.9123 6.2594C9.53743 6.03274 9.0841 5.9194 8.56102 5.9194C7.97692 5.9194 7.47128 6.06761 7.03538 6.36402C6.59948 6.66043 6.29436 7.07017 6.10256 7.60197H8.22974C8.41282 7.60197 8.56102 7.75017 8.56102 7.93325C8.56102 8.11633 8.41282 8.26453 8.22974 8.26453H5.93692C5.91948 8.43017 5.90205 8.60453 5.90205 8.77017C5.90205 8.97068 5.91948 9.15376 5.94564 9.31068H8.22102C8.4041 9.31068 8.5523 9.45889 8.5523 9.64197C8.5523 9.82504 8.4041 9.97325 8.22102 9.97325H6.11128C6.31179 10.4876 6.62564 10.8886 7.06154 11.1763C7.49743 11.464 7.99436 11.6122 8.5523 11.6122C9.07538 11.6122 9.52 11.4989 9.89487 11.2722Z" fill="#F26F55"/>
</g>
<defs>
<clipPath id="clip0_95_1450">
<rect width="17" height="17" fill="white"/>
</clipPath>
</defs>
</svg>
