<svg width="17" height="17" viewBox="0 0 17 17" fill="none" xmlns="http://www.w3.org/2000/svg">
<g clip-path="url(#clip0_156_218)">
<path d="M8.49998 16.913C3.86203 16.913 0.0871582 13.1382 0.0871582 8.50022C0.0871582 3.86227 3.86203 0.0874023 8.49998 0.0874023C13.1379 0.0874023 16.9128 3.86227 16.9128 8.50022C16.9128 13.1382 13.1379 16.913 8.49998 16.913ZM8.49998 0.540736C4.11485 0.540736 0.540491 4.11509 0.540491 8.50022C0.540491 12.8854 4.11485 16.4597 8.49998 16.4597C12.8851 16.4597 16.4595 12.8854 16.4595 8.50022C16.4595 4.11509 12.8938 0.540736 8.49998 0.540736Z" fill="#0083F1"/>
<path d="M8.5 17C3.80974 17 0 13.1903 0 8.5C0 3.80974 3.80974 0 8.5 0C13.1903 0 17 3.80974 17 8.5C17 13.1903 13.1903 17 8.5 17ZM8.5 0.174359C3.90564 0.174359 0.174359 3.90564 0.174359 8.5C0.174359 13.0944 3.91436 16.8256 8.50872 16.8256C13.1031 16.8256 16.8344 13.0856 16.8344 8.5C16.8344 3.91436 13.0944 0.174359 8.5 0.174359ZM8.5 16.5467C4.06256 16.5467 0.453333 12.9374 0.453333 8.5C0.453333 4.06256 4.06256 0.453333 8.5 0.453333C12.9374 0.453333 16.5467 4.06256 16.5467 8.5C16.5467 12.9374 12.9374 16.5467 8.5 16.5467ZM8.5 0.627692C4.15846 0.627692 0.627692 4.15846 0.627692 8.5C0.627692 12.8415 4.15846 16.3723 8.5 16.3723C12.8415 16.3723 16.3723 12.8415 16.3723 8.5C16.3723 4.15846 12.8415 0.627692 8.5 0.627692Z" fill="#0083F1"/>
<path d="M9.89478 11.2725C10.165 11.1068 10.3917 10.8889 10.5748 10.6186C10.7143 10.4181 10.9322 10.2873 11.1763 10.2873C11.5163 10.2873 11.7343 10.6709 11.5512 10.9499C11.3071 11.3335 10.9932 11.6473 10.6096 11.8914C10.0168 12.2663 9.33683 12.4581 8.55221 12.4581C7.7676 12.4581 7.00914 12.2314 6.39016 11.7781C5.76247 11.3248 5.33529 10.7232 5.0999 9.96478H4.41991C4.23683 9.96478 4.08862 9.81657 4.08862 9.63349C4.08862 9.45042 4.23683 9.30221 4.41991 9.30221H4.9517C4.93426 9.11913 4.91683 8.94477 4.91683 8.7617C4.91683 8.57862 4.92555 8.4217 4.9517 8.25606H4.41991C4.23683 8.25606 4.08862 8.10785 4.08862 7.92477C4.08862 7.7417 4.23683 7.59349 4.41991 7.59349H5.09119C5.23939 7.08785 5.48349 6.64324 5.82349 6.25965C6.16349 5.87606 6.56452 5.57965 7.02657 5.3617C7.48862 5.14375 8.00298 5.04785 8.55221 5.04785C9.33683 5.04785 10.0255 5.23965 10.6096 5.62324C11.002 5.87606 11.3158 6.19862 11.5686 6.59093C11.7517 6.87862 11.5338 7.24478 11.2025 7.24478C10.9496 7.24478 10.723 7.11401 10.5835 6.90477C10.4004 6.63452 10.1825 6.42529 9.91221 6.25965C9.53734 6.03298 9.08401 5.91965 8.56093 5.91965C7.97683 5.91965 7.47119 6.06785 7.03529 6.36426C6.59939 6.66067 6.29426 7.07042 6.10247 7.60221H8.22965C8.41272 7.60221 8.56093 7.75042 8.56093 7.93349C8.56093 8.11657 8.41272 8.26477 8.22965 8.26477H5.93683C5.91939 8.43042 5.90196 8.60478 5.90196 8.77042C5.90196 8.97093 5.91939 9.15401 5.94555 9.31093H8.22093C8.40401 9.31093 8.55221 9.45913 8.55221 9.64221C8.55221 9.82529 8.40401 9.97349 8.22093 9.97349H6.11119C6.3117 10.4879 6.62555 10.8889 7.06144 11.1766C7.49734 11.4643 7.99426 11.6125 8.55221 11.6125C9.07529 11.6125 9.51991 11.4991 9.89478 11.2725Z" fill="#0083F1"/>
</g>
<defs>
<clipPath id="clip0_156_218">
<rect width="17" height="17" fill="white"/>
</clipPath>
</defs>
</svg>
