<svg width="10" height="19" viewBox="0 0 10 19" fill="none" xmlns="http://www.w3.org/2000/svg">
<g clip-path="url(#clip0_78_997)">
<path d="M6.68732 14.7422C6.68732 15.9239 6.68732 17.1049 6.68732 18.2866C6.68732 18.3943 6.6825 18.5027 6.67707 18.6105C6.66622 18.8285 6.55167 18.9511 6.34428 18.9802C6.25566 18.9926 6.16462 18.9981 6.0748 18.9988C5.18012 19 4.28544 19 3.39137 18.9988C2.90062 18.9988 2.7915 18.8873 2.7915 18.3894C2.7915 15.9183 2.78849 13.4472 2.79632 10.9768C2.79693 10.7718 2.74809 10.7179 2.54854 10.7222C1.88718 10.7359 1.22582 10.7303 0.563853 10.7266C0.10928 10.7241 0.0031726 10.6145 0.00196684 10.1537C0.00015819 9.24268 0.00015819 8.33167 0.00196684 7.42003C0.0031726 6.95864 0.124955 6.83478 0.584351 6.83292C1.25355 6.82983 1.92275 6.82735 2.59134 6.8354C2.74568 6.83726 2.79632 6.79762 2.79452 6.63226C2.78668 5.92191 2.77703 5.21093 2.79753 4.5012C2.83069 3.35175 3.13032 2.29148 3.88995 1.41329C4.60919 0.582164 5.54064 0.168461 6.5993 0.0569842C7.57296 -0.045203 8.55204 0.0216831 9.5287 0.0179672C9.85004 0.0167286 9.99051 0.157933 9.99353 0.484932C10.0026 1.404 10.0026 2.32244 9.99232 3.24151C9.9887 3.55426 9.86632 3.67007 9.55704 3.67998C8.93366 3.69918 8.30968 3.70414 7.6863 3.7159C7.00203 3.72891 6.71626 4.02061 6.70963 4.72415C6.7036 5.34966 6.71325 5.97517 6.69817 6.60006C6.69335 6.80319 6.76329 6.8385 6.94234 6.83664C7.70137 6.82673 8.461 6.8323 9.22003 6.83292C9.28755 6.83292 9.35568 6.83106 9.4226 6.83726C9.76564 6.86884 9.87174 6.98094 9.87416 7.33643C9.87838 8.01582 9.87596 8.69521 9.87596 9.37522C9.87596 9.6762 9.87958 9.97781 9.87295 10.2788C9.86632 10.5959 9.75961 10.7173 9.44973 10.721C8.6081 10.7303 7.76588 10.7328 6.92426 10.7247C6.73977 10.7228 6.6819 10.7718 6.6831 10.9675C6.69154 12.2259 6.68732 13.485 6.68732 14.7434V14.7422Z" fill="#4366AE"/>
</g>
<defs>
<clipPath id="clip0_78_997">
<rect width="10" height="19" fill="white"/>
</clipPath>
</defs>
</svg>
