<svg width="17" height="17" viewBox="0 0 17 17" fill="none" xmlns="http://www.w3.org/2000/svg">
<g clip-path="url(#clip0_95_1468)">
<path d="M7.90717 8.2297C6.67794 8.2297 5.66666 7.22714 5.66666 5.99791C5.66666 4.76868 6.66922 3.76611 7.90717 3.76611C9.14512 3.76611 10.139 4.76868 10.139 5.99791C10.139 7.22714 9.1364 8.2297 7.90717 8.2297ZM7.90717 4.01022C6.81743 4.01022 5.91948 4.89945 5.91948 5.99791C5.91948 7.09637 6.80871 7.9856 7.90717 7.9856C9.00563 7.9856 9.89486 7.09637 9.89486 5.99791C9.89486 4.89945 9.00563 4.01022 7.90717 4.01022Z" fill="#F26F55"/>
<path d="M7.90717 8.28207C6.65179 8.28207 5.62307 7.25335 5.62307 5.99797C5.62307 4.74258 6.65179 3.71387 7.90717 3.71387C9.16256 3.71387 10.1913 4.73387 10.1913 5.99797C10.1913 7.26207 9.16256 8.28207 7.90717 8.28207ZM7.90717 3.80976C6.7041 3.80976 5.71897 4.79489 5.71897 5.99797C5.71897 7.20105 6.7041 8.18617 7.90717 8.18617C9.11025 8.18617 10.0954 7.20105 10.0954 5.99797C10.0954 4.79489 9.11025 3.80976 7.90717 3.80976ZM7.90717 8.02925C6.79127 8.02925 5.87589 7.11387 5.87589 5.99797C5.87589 4.88207 6.79127 3.96669 7.90717 3.96669C9.02307 3.96669 9.93845 4.87335 9.93845 5.99797C9.93845 7.12259 9.02307 8.02925 7.90717 8.02925ZM7.90717 4.06258C6.84358 4.06258 5.97179 4.93438 5.97179 5.99797C5.97179 7.06156 6.84358 7.93335 7.90717 7.93335C8.97076 7.93335 9.84256 7.06156 9.84256 5.99797C9.84256 4.93438 8.97076 4.06258 7.90717 4.06258Z" fill="#F26F55"/>
<path d="M10.7056 12.8764H5.21333C5.14359 12.8764 5.09128 12.8241 5.09128 12.7543V10.8538C5.09128 9.26713 6.38153 7.9856 7.95948 7.9856C9.53743 7.9856 10.8277 9.27585 10.8277 10.8538V12.7543C10.8277 12.8241 10.7754 12.8764 10.7056 12.8764ZM5.3441 12.6235H10.5836V10.8538C10.5836 9.40662 9.40666 8.23842 7.9682 8.23842C6.52974 8.23842 5.35282 9.41534 5.35282 10.8538V12.6235H5.3441Z" fill="#F26F55"/>
<path d="M10.7056 12.9199H5.21333C5.11743 12.9199 5.03897 12.8415 5.03897 12.7456V10.8451C5.03897 9.23225 6.34666 7.92456 7.95948 7.92456C9.5723 7.92456 10.88 9.23225 10.88 10.8451V12.7456C10.88 12.8415 10.8015 12.9199 10.7056 12.9199ZM7.95948 8.02918C6.39897 8.02918 5.13487 9.29328 5.13487 10.8538V12.7543C5.13487 12.7543 5.16974 12.8328 5.21333 12.8328H10.7056C10.7056 12.8328 10.7841 12.7979 10.7841 12.7543V10.8538C10.7841 9.29328 9.52 8.02918 7.95948 8.02918ZM10.5749 12.6671H5.3441C5.3441 12.6671 5.30051 12.6497 5.30051 12.6235V10.8538C5.30051 9.38046 6.49487 8.1861 7.9682 8.1861C9.44153 8.1861 10.6359 9.38046 10.6359 10.8538V12.6235C10.6359 12.6235 10.6185 12.6671 10.5923 12.6671H10.5749ZM5.38769 12.5712H10.5313V10.8451C10.5313 9.42405 9.38051 8.27328 7.95948 8.27328C6.53846 8.27328 5.38769 9.42405 5.38769 10.8451V12.5712Z" fill="#F26F55"/>
<path d="M9.92102 8.70926C9.38051 8.70926 8.87487 8.50003 8.49128 8.11644C8.43897 8.06413 8.43897 7.98567 8.49128 7.94208C8.54359 7.89849 8.62205 7.88977 8.66564 7.94208C8.99692 8.27336 9.44154 8.45644 9.91231 8.45644C10.8887 8.45644 11.682 7.66311 11.682 6.6867C11.682 5.71029 10.8887 4.91695 9.91231 4.91695C9.82513 4.91695 9.73795 4.91695 9.65077 4.93439C9.58102 4.94311 9.52 4.89952 9.51128 4.82977C9.50256 4.76003 9.54615 4.69901 9.6159 4.69029C9.71179 4.67285 9.81641 4.67285 9.91231 4.67285C11.0282 4.67285 11.9349 5.57952 11.9349 6.69542C11.9349 7.81131 11.0282 8.71798 9.91231 8.71798L9.92102 8.70926Z" fill="#F26F55"/>
<path d="M9.92102 8.75291C9.37179 8.75291 8.84871 8.53496 8.45641 8.15137C8.38666 8.08163 8.38666 7.97702 8.45641 7.90727C8.52615 7.83753 8.63076 7.83753 8.70051 7.90727C9.02307 8.22984 9.45897 8.41291 9.92102 8.41291C10.8713 8.41291 11.6385 7.63702 11.6385 6.69548C11.6385 5.75394 10.8626 4.97804 9.92102 4.97804C9.83384 4.97804 9.74666 4.97804 9.6682 4.99548C9.62461 4.99548 9.58102 4.99548 9.53743 4.96061C9.50256 4.93445 9.47641 4.89086 9.46769 4.84727C9.46769 4.80368 9.46769 4.75137 9.50256 4.7165C9.52871 4.68163 9.5723 4.65548 9.61589 4.64676C9.71179 4.62932 9.81641 4.62061 9.92102 4.62061C11.0631 4.62061 11.9872 5.54471 11.9872 6.68676C11.9872 7.82881 11.0631 8.75291 9.92102 8.75291ZM8.57846 7.94214C8.57846 7.94214 8.53487 7.94214 8.52615 7.9683C8.49128 8.00317 8.49128 8.04676 8.52615 8.08163C8.90102 8.4565 9.39794 8.65702 9.92102 8.65702C11.0108 8.65702 11.8913 7.76778 11.8913 6.68676C11.8913 5.60573 11.002 4.7165 9.92102 4.7165C9.82512 4.7165 9.72923 4.7165 9.63333 4.73394C9.61589 4.73394 9.58974 4.75137 9.58102 4.76881C9.5723 4.78625 9.56359 4.80368 9.56359 4.82984C9.56359 4.84727 9.58102 4.87343 9.59846 4.88214C9.61589 4.89086 9.63333 4.89958 9.65948 4.89958C9.74666 4.89086 9.83384 4.88214 9.92974 4.88214C10.9323 4.88214 11.7431 5.69291 11.7431 6.69548C11.7431 7.69804 10.9323 8.50881 9.92974 8.50881C9.44153 8.50881 8.9882 8.31702 8.6482 7.97702C8.63077 7.95958 8.61333 7.95086 8.59589 7.95086L8.57846 7.94214Z" fill="#F26F55"/>
<path d="M12.4318 12.8764H10.7056C10.6359 12.8764 10.5836 12.8241 10.5836 12.7543C10.5836 12.6846 10.6359 12.6323 10.7056 12.6323H12.3097V11.0543C12.3097 9.76406 11.281 8.71791 10.0169 8.71791C9.88615 8.71791 9.75538 8.72663 9.63333 8.75278C9.56358 8.7615 9.50256 8.71791 9.48512 8.64816C9.4764 8.57842 9.51999 8.5174 9.58974 8.49996C9.72922 8.47381 9.87743 8.46509 10.0169 8.46509C11.4205 8.46509 12.5626 9.62458 12.5626 11.0543V12.7543C12.5626 12.8241 12.5103 12.8764 12.4405 12.8764H12.4318Z" fill="#F26F55"/>
<path d="M12.4318 12.92H10.7056C10.6097 12.92 10.5313 12.8416 10.5313 12.7457C10.5313 12.6498 10.6097 12.5713 10.7056 12.5713H12.2574V11.0457C12.2574 9.78156 11.2461 8.75284 10.0082 8.75284C9.87743 8.75284 9.75538 8.76156 9.63333 8.78771C9.53743 8.80515 9.45025 8.73541 9.43282 8.64823C9.43282 8.60464 9.43282 8.55233 9.45897 8.51746C9.48512 8.48259 9.52871 8.45643 9.5723 8.44771C9.71179 8.42156 9.85999 8.41284 10.0082 8.41284C11.4379 8.41284 12.6061 9.59848 12.6061 11.0544V12.7544C12.6061 12.8503 12.5277 12.9287 12.4318 12.9287V12.92ZM10.7056 12.6672C10.7056 12.6672 10.6272 12.7021 10.6272 12.7457C10.6272 12.7893 10.662 12.8241 10.7056 12.8241H12.4318C12.4318 12.8241 12.5103 12.7893 12.5103 12.7457V11.0457C12.5103 9.64207 11.3856 8.50002 10.0082 8.50002C9.86871 8.50002 9.72923 8.50874 9.58974 8.53489C9.5723 8.53489 9.55487 8.55233 9.53743 8.56977C9.52871 8.5872 9.52 8.60464 9.52 8.63079C9.52 8.67438 9.5723 8.70053 9.61589 8.69182C9.74666 8.66566 9.87743 8.65694 10.0082 8.65694C11.2985 8.65694 12.3533 9.72925 12.3533 11.0457V12.6236C12.3533 12.6236 12.3359 12.6672 12.3097 12.6672H10.7056Z" fill="#F26F55"/>
<path d="M8.5 16.9128C3.86205 16.9128 0.0871811 13.1379 0.0871811 8.49998C0.0871811 3.86203 3.86205 0.0871582 8.5 0.0871582C13.1379 0.0871582 16.9128 3.86203 16.9128 8.49998C16.9128 13.1379 13.1379 16.9128 8.5 16.9128ZM8.5 0.540491C4.11487 0.540491 0.540514 4.11485 0.540514 8.49998C0.540514 12.8851 4.11487 16.4595 8.5 16.4595C12.8851 16.4595 16.4595 12.8851 16.4595 8.49998C16.4595 4.11485 12.8938 0.540491 8.5 0.540491Z" fill="#F26F55"/>
<path d="M8.5 17C3.80974 17 0 13.1903 0 8.5C0 3.80974 3.80974 0 8.5 0C13.1903 0 17 3.80974 17 8.5C17 13.1903 13.1903 17 8.5 17ZM8.5 0.174359C3.90564 0.174359 0.174359 3.90564 0.174359 8.5C0.174359 13.0944 3.91436 16.8256 8.50872 16.8256C13.1031 16.8256 16.8344 13.0856 16.8344 8.5C16.8344 3.91436 13.0944 0.174359 8.5 0.174359ZM8.5 16.5467C4.06256 16.5467 0.453333 12.9374 0.453333 8.5C0.453333 4.06256 4.06256 0.453333 8.5 0.453333C12.9374 0.453333 16.5467 4.06256 16.5467 8.5C16.5467 12.9374 12.9374 16.5467 8.5 16.5467ZM8.5 0.627692C4.15846 0.627692 0.627692 4.15846 0.627692 8.5C0.627692 12.8415 4.15846 16.3723 8.5 16.3723C12.8415 16.3723 16.3723 12.8415 16.3723 8.5C16.3723 4.15846 12.8415 0.627692 8.5 0.627692Z" fill="#F26F55"/>
</g>
<defs>
<clipPath id="clip0_95_1468">
<rect width="17" height="17" fill="white"/>
</clipPath>
</defs>
</svg>
