<svg id="Capa_1" data-name="Capa 1" xmlns="http://www.w3.org/2000/svg" xmlns:xlink="http://www.w3.org/1999/xlink" viewBox="0 0 3928.01 3667.89"><defs><style>.cls-1,.cls-2,.cls-27{fill:none;}.cls-2{font-size:130.76px;font-family:OmnesMedium;}.cls-3{letter-spacing:-0.01em;}.cls-4{fill:#f26f55;}.cls-5{font-size:17.27px;fill:#1d1d1b;font-family:Poppins-Light, Poppins;font-weight:300;letter-spacing:0.02em;}.cls-6{fill:#0083f1;}.cls-7{fill:#f59f5b;}.cls-8{fill:#78c9ff;}.cls-9{fill:#fff;}.cls-10{clip-path:url(#clip-path);}.cls-11{clip-path:url(#clip-path-2);}.cls-12{fill:#4ca7d4;}.cls-13{fill:#f2ead7;}.cls-14{fill:#c48cbd;}.cls-15{fill:#80b7cc;}.cls-16{fill:#f29c4e;}.cls-17{fill:#71c2aa;}.cls-18{fill:#f8c07e;}.cls-19{fill:#8192d9;}.cls-20{fill:#efa397;}.cls-21{fill:#ffa256;}.cls-22{clip-path:url(#clip-path-3);}.cls-23{clip-path:url(#clip-path-4);}.cls-24{fill:#07a3e0;}.cls-25{font-size:19px;}.cls-25,.cls-26,.cls-28{font-family:Poppins-Regular, Poppins;}.cls-26{font-size:21px;}.cls-27{stroke:#000;stroke-miterlimit:10;}.cls-28{font-size:25px;}.cls-29{fill:#efefef;}.cls-30{fill:#969595;}.cls-31{clip-path:url(#clip-path-5);}.cls-32{clip-path:url(#clip-path-6);}</style><clipPath id="clip-path" transform="translate(428.97 974.7)"><path class="cls-1" d="M539.59,692.08c0-88.6,72.08-160.68,160.68-160.68S861,603.48,861,692.08,788.87,852.76,700.27,852.76,539.59,780.68,539.59,692.08Zm10.09,0c0,83,67.55,150.59,150.59,150.59s150.59-67.55,150.59-150.59S783.3,541.49,700.27,541.49,549.68,609.05,549.68,692.08Z"/></clipPath><clipPath id="clip-path-2" transform="translate(428.97 974.7)"><rect class="cls-1" x="43.08" y="47.81" width="1288.54" height="1288.54" transform="translate(1374.69 1384.16) rotate(-180)"/></clipPath><clipPath id="clip-path-3" transform="translate(428.97 974.7)"><text class="cls-2" transform="translate(457.47 342.55)"><tspan class="cls-3">f</tspan><tspan x="36.48" y="0">elicitUp</tspan></text></clipPath><clipPath id="clip-path-4" transform="translate(428.97 974.7)"><rect class="cls-1" x="358.64" y="-191.91" width="653.78" height="653.78"/></clipPath><clipPath id="clip-path-5" transform="translate(428.97 974.7)"><path class="cls-1" d="M1795.3,643.18c0-137.85,112.15-250,250-250s250,112.15,250,250-112.15,250-250,250S1795.3,781,1795.3,643.18Zm15.7,0c0,129.2,105.11,234.3,234.3,234.3s234.3-105.1,234.3-234.3-105.11-234.3-234.3-234.3S1811,514,1811,643.18Z"/></clipPath><clipPath id="clip-path-6" transform="translate(428.97 974.7)"><rect class="cls-1" x="1022.79" y="-359.22" width="2004.81" height="2004.81" transform="translate(4050.4 1286.36) rotate(-180)"/></clipPath></defs><rect class="cls-4" x="753.86" y="2030.1" width="113.3" height="113.3"/><text class="cls-5" transform="translate(772.66 2173.07)">#F26F55</text><rect class="cls-6" x="1010.26" y="2029.75" width="113.3" height="113.3"/><text class="cls-5" transform="translate(1030.74 2172.55)">#0083F1</text><rect class="cls-7" x="882.06" y="2030.1" width="113.3" height="113.3"/><text class="cls-5" transform="translate(900.68 2173.07)">#F59F5B</text><rect class="cls-8" x="1141.45" y="2028.72" width="113.3" height="113.3"/><text class="cls-5" transform="translate(1159.24 2172.55)">#78C9FF</text><circle class="cls-9" cx="1129.23" cy="1666.78" r="157.42"/><g class="cls-10"><g class="cls-11"><path class="cls-4" d="M97,1440.7c262.2,82.13,225.63,199.22,368.23,360.71,85.91,97.31,137.44-369.81,137.44-499.62s-105.23-235-235-235S-26.87,1401.89,97,1440.7Z" transform="translate(428.97 974.7)"/><circle class="cls-1" cx="1613.02" cy="1298.78" r="295.36"/><path class="cls-12" d="M100.85,1838.59c0,94.49,95.52,171.09,213.36,171.09s213.36-76.6,213.36-171.09-3-217.47-120.79-217.47S100.85,1744.1,100.85,1838.59Z" transform="translate(428.97 974.7)"/><path class="cls-13" d="M619,1215.87q-14.31,2.7-28.95,4.85,9.92-11.87,19.33-23Q613.79,1206.82,619,1215.87Z" transform="translate(428.97 974.7)"/><path class="cls-13" d="M503.65,54.28c-1.56-2.2-3.14-4.35-4.73-6.47h11.44C508.07,49.94,505.82,52.1,503.65,54.28Z" transform="translate(428.97 974.7)"/><path class="cls-13" d="M72.62,776.38a264.81,264.81,0,0,0-29.54-6.16V670.36A1045.87,1045.87,0,0,0,100.93,762Q86.39,768.66,72.62,776.38Z" transform="translate(428.97 974.7)"/><path class="cls-13" d="M43.08,1336.35v-20.9a391.14,391.14,0,0,0,34.24,20.9Z" transform="translate(428.97 974.7)"/><path class="cls-13" d="M1164.54,338.46A633,633,0,0,0,1187,278.11a431.24,431.24,0,0,0,144.62,37.47v89.68a234.28,234.28,0,0,0-164.17-66.86Q1166,338.4,1164.54,338.46Z" transform="translate(428.97 974.7)"/><path class="cls-14" d="M1187,278.11a633,633,0,0,1-22.46,60.35c-72.84,2.72-185.71,106.41-250.2,204.43a123.31,123.31,0,0,0-21.47-12.84c-88.82-41.9-110.48-177.82-246.76-177.82-4.39,0-9,.13-13.71.39,31.86-51.21,40.36-98,6.84-124.84-71.78-57.52-100.6-124.45-135.59-173.5,2.17-2.18,4.42-4.34,6.71-6.47C576.7-13.91,695.2-55,830.38-55c54.35,0,106,6.66,152.66,18.62-.51,7-.8,14-.8,21.09C982.24,111.75,1065.16,222.16,1187,278.11Z" transform="translate(428.97 974.7)"/><path class="cls-4" d="M1243.43,800.75c-15.64,0-34.23,1.63-54,4.56C1141.1,760,1037.27,696.2,949.13,666.09c12.65-45.91,4.93-93.39-34.79-123.2,64.49-98,177.36-201.71,250.2-204.43q1.47-.06,2.91-.06a235.08,235.08,0,0,1,235,235c0,56.75-9.85,178-28.11,288.3A170.73,170.73,0,0,0,1243.43,800.75Z" transform="translate(428.97 974.7)"/><path class="cls-15" d="M229.06,211.46c0,95.07-42,245.44-14.52,325.13-8.86,12.91-13.78,25.71-13.78,38.1,0,53.11,115.36,54,233.54,62.66-101.81,4.13-184.63,21.69-221.93,90.9A426.71,426.71,0,0,0,100.93,762a1045.87,1045.87,0,0,1-57.85-91.59C-33.57,535-94.65,370.14-94.65,291.67-94.65,132.74,31.5,3.9,187.11,3.9A276.23,276.23,0,0,1,268.6,16.14C228.42,54.11,229.06,123.9,229.06,211.46Z" transform="translate(428.97 974.7)"/><path class="cls-4" d="M434.3,637.35c100.35,7.31,202.73,20.16,238.23,75.19,33.37,51.73,70.76,76.58,107.14,82.91,2.92,76.27,34.38,188-126.25,245-70.83,25.1-75.88,91-44,157.33q-9.42,11.12-19.33,23c-16.55,2.45-33.37,4.42-50.34,6,21.94-58.82,7.46-119.31-61.12-153.6-201-100.51,18.28-350.48-195.22-350.48a450.2,450.2,0,0,0-71,5.62C249.67,659,332.49,641.48,434.3,637.35Z" transform="translate(428.97 974.7)"/><path class="cls-16" d="M809.76,672.75c-7.71,12.14-6.11,29.5,1.37,50.37-28.5,12.14-32.75,38.8-31.46,72.33-36.38-6.33-73.77-31.18-107.14-82.91-35.5-55-137.88-67.88-238.23-75.19-118.18-8.62-233.54-9.55-233.54-62.66,0-12.39,4.92-25.19,13.78-38.1,11.33,32.85,34.47,53.7,77.23,53.7,99.61,0,272.9-128.83,340.63-237.67,4.74-.26,9.32-.39,13.71-.39,136.28,0,157.94,135.92,246.76,177.82a123.31,123.31,0,0,1,21.47,12.84c39.72,29.81,47.44,77.29,34.79,123.2C885.73,644.43,830.45,640.19,809.76,672.75Z" transform="translate(428.97 974.7)"/><path class="cls-17" d="M639.24,227.78c33.52,26.86,25,73.63-6.84,124.84-67.73,108.84-241,237.67-340.63,237.67-42.76,0-65.9-20.85-77.23-53.7-27.48-79.69,14.52-230.06,14.52-325.13,0-87.56-.64-157.35,39.54-195.32C290-4.12,323.06-15.33,374-15.33c63.18,0,96.66,25.58,124.9,63.14,1.59,2.12,3.17,4.27,4.73,6.47C538.64,103.33,567.46,170.26,639.24,227.78Z" transform="translate(428.97 974.7)"/><path class="cls-18" d="M653.42,1040.42c160.63-56.93,129.17-168.7,126.25-245-1.29-33.53,3-60.19,31.46-72.33,37.51,104.73,223.18,298.07,125.76,365.4-23.95,16.56-43,32.61-57.51,48a710.45,710.45,0,0,0-151.53,47c-33.21,14.65-70,25-108.81,32.34q-5.25-9-9.62-18.12C577.54,1131.46,582.59,1065.52,653.42,1040.42Z" transform="translate(428.97 974.7)"/><path class="cls-19" d="M1392.68,1161c-1.39,18.21-6.63,34.27-15.46,48.41a297.14,297.14,0,0,0-28.82-17.64C1368.65,1188,1382.81,1176.88,1392.68,1161Z" transform="translate(428.97 974.7)"/><path class="cls-12" d="M936.89,1088.52c97.42-67.33-88.25-260.67-125.76-365.4-7.48-20.87-9.08-38.23-1.37-50.37,20.69-32.56,76-28.32,139.37-6.66,88.14,30.11,192,93.88,240.33,139.22C1090,820.07,961.14,868,1031.39,908.13c61.11,34.92,145.34,176.07,223.4,245.8-102-30.73-237.82-44.08-375.41-17.43C893.89,1121.13,912.94,1105.08,936.89,1088.52Z" transform="translate(428.97 974.7)"/><path class="cls-12" d="M1348.4,1191.81c-26.08-14.12-57.75-27.07-93.61-37.88-78.06-69.73-162.29-210.88-223.4-245.8C961.14,868,1090,820.07,1189.46,805.31c19.74-2.93,38.33-4.56,54-4.56a171.1,171.1,0,0,1,171.09,171.08c0,65,5.48,145.36-21.84,189.21C1382.81,1176.88,1368.65,1188,1348.4,1191.81Z" transform="translate(428.97 974.7)"/><path class="cls-14" d="M250.53,995.32c0-103.72-75.1-191.25-177.91-218.94q13.77-7.71,28.31-14.43a426.71,426.71,0,0,1,111.44-33.7,450.2,450.2,0,0,1,71-5.62c213.5,0-5.79,250,195.22,350.48,68.58,34.29,83.06,94.78,61.12,153.6C317.86,1247.23,71,1199.59,71,1277.6c0,34.56,35,66.91,96,94.55a416.19,416.19,0,0,1-89.64-35.8,391.14,391.14,0,0,1-34.24-20.9c-39.35-26.9-72.45-60.25-97.16-98.2a268.08,268.08,0,0,0,57.21,6.14C139.77,1223.39,250.53,1121.28,250.53,995.32Z" transform="translate(428.97 974.7)"/><path class="cls-20" d="M71,1277.6c0-78,246.86-30.37,468.75-50.89,17-1.57,33.79-3.54,50.34-6q14.63-2.16,28.95-4.85c38.77-7.31,75.6-17.69,108.81-32.34a710.45,710.45,0,0,1,151.53-47c137.59-26.65,273.43-13.3,375.41,17.43,35.86,10.81,67.53,23.76,93.61,37.88a297.14,297.14,0,0,1,28.82,17.64c31.65,22.1,49.75,45.89,49.75,68.15,0,101.76-303.55,184.26-678,184.26-247.25,0-463.57-36-582-89.71C106,1344.51,71,1312.16,71,1277.6Z" transform="translate(428.97 974.7)"/><path class="cls-16" d="M-244.27,995.32c0-126,110.77-228.07,247.4-228.07a269.39,269.39,0,0,1,39.95,3,264.81,264.81,0,0,1,29.54,6.16C175.43,804.07,250.53,891.6,250.53,995.32c0,126-110.76,228.07-247.4,228.07a268.08,268.08,0,0,1-57.21-6.14C-163.13,1193.45-244.27,1103.12-244.27,995.32Z" transform="translate(428.97 974.7)"/><path class="cls-12" d="M982.24-15.33c0-7.08.29-14.11.8-21.09,12.65-173.77,180.51-311.35,385.76-311.35,213.5,0-5.79,250,195.22,350.48,164.22,82.11,18.28,314.41-195.22,314.41-12.54,0-24.94-.54-37.18-1.54A431.24,431.24,0,0,1,1187,278.11C1065.16,222.16,982.24,111.75,982.24-15.33Z" transform="translate(428.97 974.7)"/></g><circle class="cls-1" cx="155.64" cy="1353.61" r="155.64"/></g><path class="cls-4" d="M692.85,672.68l-25.52-25.52a27.45,27.45,0,0,1,0-38.82h0a27.46,27.46,0,0,1,38.81,0l53.45,53.45a42.85,42.85,0,0,1,0,60.59l-53.45,53.44a27.44,27.44,0,0,1-38.81,0h0a27.44,27.44,0,0,1,0-38.81l25.52-25.52A27.44,27.44,0,0,0,692.85,672.68Z" transform="translate(428.97 974.7)"/><path class="cls-21" d="M667.33,775.82a27.44,27.44,0,0,0,38.81,0l5.39-5.39a55.9,55.9,0,0,0,0-79.07l-18.68-18.68a27.44,27.44,0,0,1,0,38.81L667.33,737a27.44,27.44,0,0,0,0,38.81Z" transform="translate(428.97 974.7)"/><path class="cls-4" d="M666.84,696.45l-5.74,5.74a6.19,6.19,0,0,0,0,8.74h0a6.19,6.19,0,0,0,8.74,0l12-12a9.66,9.66,0,0,0,0-13.64l-12-12a6.19,6.19,0,0,0-8.74,0h0a6.19,6.19,0,0,0,0,8.74l5.74,5.74A6.17,6.17,0,0,1,666.84,696.45Z" transform="translate(428.97 974.7)"/><path class="cls-21" d="M661.1,673.23a6.19,6.19,0,0,1,8.74,0l1.21,1.22a12.58,12.58,0,0,1,0,17.79l-4.21,4.21a6.17,6.17,0,0,0,0-8.74L661.1,682a6.19,6.19,0,0,1,0-8.74Z" transform="translate(428.97 974.7)"/><g class="cls-22"><g class="cls-23"><path class="cls-4" d="M985.06,514.82c-133,41.67-114.48,101.08-186.83,183-43.59,49.37-69.73-187.63-69.73-253.5A119.25,119.25,0,0,1,847.75,325.09C913.61,325.09,1047.91,495.13,985.06,514.82Z" transform="translate(428.97 974.7)"/><circle class="cls-1" cx="862.48" cy="922.97" r="149.86"/><path class="cls-12" d="M983.11,716.71c0,47.94-48.46,86.8-108.25,86.8S766.6,764.65,766.6,716.71s1.5-110.35,61.29-110.35S983.11,668.76,983.11,716.71Z" transform="translate(428.97 974.7)"/><path class="cls-13" d="M720.19,400.75c4.84.91,9.74,1.72,14.69,2.46q-5-6-9.81-11.65Q722.87,396.15,720.19,400.75Z" transform="translate(428.97 974.7)"/><path class="cls-13" d="M778.73-188.63c.8-1.11,1.6-2.2,2.41-3.28h-5.81C776.5-190.82,777.64-189.73,778.73-188.63Z" transform="translate(428.97 974.7)"/><path class="cls-13" d="M997.43,177.76a134.1,134.1,0,0,1,15-3.13V124a529.7,529.7,0,0,1-29.35,46.47Q990.45,173.83,997.43,177.76Z" transform="translate(428.97 974.7)"/><path class="cls-13" d="M1012.42,461.88V451.27a198.17,198.17,0,0,1-17.37,10.61Z" transform="translate(428.97 974.7)"/><path class="cls-13" d="M443.41-44.44A321.81,321.81,0,0,1,432-75.06a218.54,218.54,0,0,1-73.37,19v45.51a118.85,118.85,0,0,1,83.3-33.93Q442.68-44.47,443.41-44.44Z" transform="translate(428.97 974.7)"/><path class="cls-14" d="M432-75.06a321.81,321.81,0,0,0,11.4,30.62c37,1.38,94.23,54,127,103.73a62.77,62.77,0,0,1,10.89-6.52c45.07-21.26,56.06-90.22,125.2-90.22,2.23,0,4.56.07,7,.2-16.16-26-20.48-49.72-3.47-63.34,36.42-29.19,51-63.15,68.79-88-1.09-1.1-2.23-2.19-3.4-3.28-33.65-31.32-93.78-52.18-162.37-52.18a313.33,313.33,0,0,0-77.46,9.45c.26,3.54.41,7.1.41,10.7C535.91-159.46,493.83-103.44,432-75.06Z" transform="translate(428.97 974.7)"/><path class="cls-4" d="M403.38,190.12a193.29,193.29,0,0,1,27.39,2.31c24.53-23,77.22-55.36,121.94-70.63-6.42-23.29-2.5-47.38,17.65-62.51-32.72-49.73-90-102.35-126.95-103.73q-.74,0-1.47,0A119.29,119.29,0,0,0,322.68,74.79c0,28.79,5,90.29,14.26,146.28A86.63,86.63,0,0,1,403.38,190.12Z" transform="translate(428.97 974.7)"/><path class="cls-15" d="M918.06-108.88c0,48.24,21.31,124.54,7.36,165,4.5,6.55,7,13,7,19.33,0,27-58.53,27.42-118.49,31.8,51.65,2.09,93.67,11,112.6,46.12a216.72,216.72,0,0,1,56.54,17.09A529.7,529.7,0,0,0,1012.42,124c38.89-68.67,69.88-152.32,69.88-192.14,0-80.64-64-146-143-146A140.27,140.27,0,0,0,898-208C918.38-188.71,918.06-153.3,918.06-108.88Z" transform="translate(428.97 974.7)"/><path class="cls-4" d="M813.93,107.22c-50.92,3.71-102.87,10.23-120.88,38.15-16.93,26.24-35.9,38.85-54.36,42.07-1.48,38.69-17.45,95.4,64.06,124.29,35.94,12.73,38.5,46.19,22.32,79.83q4.78,5.63,9.81,11.65c8.4,1.24,16.93,2.24,25.54,3-11.13-29.85-3.79-60.54,31-77.94,102-51-9.27-177.83,99.05-177.83a228.1,228.1,0,0,1,36,2.86C907.6,118.22,865.58,109.31,813.93,107.22Z" transform="translate(428.97 974.7)"/><path class="cls-16" d="M623.42,125.18c3.91,6.16,3.1,15-.69,25.55,14.46,6.16,16.61,19.69,16,36.71,18.46-3.22,37.43-15.83,54.36-42.07,18-27.92,70-34.44,120.88-38.15,60-4.38,118.49-4.85,118.49-31.8,0-6.28-2.5-12.78-7-19.33-5.74,16.67-17.48,27.25-39.18,27.25C835.7,83.34,747.78,18,713.41-37.25c-2.4-.13-4.73-.2-7-.2-69.14,0-80.13,69-125.2,90.22a62.77,62.77,0,0,0-10.89,6.52c-20.15,15.13-24.07,39.22-17.65,62.51C584.88,110.81,612.93,108.66,623.42,125.18Z" transform="translate(428.97 974.7)"/><path class="cls-17" d="M709.94-100.59c-17,13.62-12.69,37.36,3.47,63.34C747.78,18,835.7,83.34,886.24,83.34c21.7,0,33.44-10.58,39.18-27.25,14-40.43-7.36-116.73-7.36-165,0-44.42.32-79.83-20.06-99.1-10.87-10.28-27.63-16-53.49-16-32,0-49,13-63.37,32-.81,1.08-1.61,2.17-2.41,3.28C761-163.74,746.36-129.78,709.94-100.59Z" transform="translate(428.97 974.7)"/><path class="cls-4" d="M702.75,311.73c-81.51-28.89-65.54-85.6-64.06-124.29.65-17-1.5-30.55-16-36.71-19,53.14-113.24,151.24-63.81,185.4,12.15,8.4,21.81,16.55,29.18,24.35A360.06,360.06,0,0,1,665,384.34c16.85,7.43,35.54,12.7,55.21,16.41q2.67-4.59,4.88-9.19C741.25,357.92,738.69,324.46,702.75,311.73Z" transform="translate(428.97 974.7)"/><path class="cls-19" d="M327.66,372.93a53.29,53.29,0,0,0,7.84,24.56,152.31,152.31,0,0,1,14.62-8.95C339.85,386.58,332.67,381,327.66,372.93Z" transform="translate(428.97 974.7)"/><path class="cls-24" d="M558.92,336.13C509.49,302,603.7,203.87,622.73,150.73c3.79-10.59,4.6-19.39.69-25.55-10.49-16.52-38.54-14.37-70.71-3.38C508,137.07,455.3,169.43,430.77,192.43c50.48,7.5,115.84,31.81,80.2,52.17-31,17.72-73.74,89.34-113.35,124.72,51.74-15.59,120.67-22.37,190.48-8.84C580.73,352.68,571.07,344.53,558.92,336.13Z" transform="translate(428.97 974.7)"/><path class="cls-24" d="M350.12,388.54a256.84,256.84,0,0,1,47.5-19.22C437.23,333.94,480,262.32,511,244.6c35.64-20.36-29.72-44.67-80.2-52.17a193.29,193.29,0,0,0-27.39-2.31,86.81,86.81,0,0,0-86.8,86.81c0,33-2.78,73.75,11.08,96C332.67,381,339.85,386.58,350.12,388.54Z" transform="translate(428.97 974.7)"/><path class="cls-16" d="M907.16,288.84c0-52.62,38.11-97,90.27-111.08q-7-3.91-14.36-7.33a216.72,216.72,0,0,0-56.54-17.09,228.1,228.1,0,0,0-36-2.86c-108.32,0,2.94,126.84-99.05,177.83-34.8,17.4-42.14,48.09-31,77.94C873,416.66,998.26,392.49,998.26,432.07c0,17.54-17.78,33.95-48.69,48a211.53,211.53,0,0,0,45.48-18.16,198.17,198.17,0,0,0,17.37-10.61,179.3,179.3,0,0,0,49.3-49.82,136.34,136.34,0,0,1-29,3.11C963.37,404.56,907.16,352.75,907.16,288.84Z" transform="translate(428.97 974.7)"/><path class="cls-20" d="M998.26,432.07c0-39.58-125.25-15.41-237.84-25.82-8.61-.8-17.14-1.8-25.54-3-5-.74-9.85-1.55-14.69-2.46-19.67-3.71-38.36-9-55.21-16.41a360.06,360.06,0,0,0-76.88-23.86c-69.81-13.53-138.74-6.75-190.48,8.84a256.84,256.84,0,0,0-47.5,19.22,152.31,152.31,0,0,0-14.62,8.95c-16.05,11.21-25.24,23.28-25.24,34.58,0,51.63,154,93.49,344,93.49,125.45,0,235.21-18.25,295.31-45.52C980.48,466,998.26,449.61,998.26,432.07Z" transform="translate(428.97 974.7)"/><path class="cls-16" d="M1158.22,288.84c0-63.91-56.2-115.72-125.53-115.72a136.59,136.59,0,0,0-20.27,1.51,134.1,134.1,0,0,0-15,3.13c-52.16,14.05-90.27,58.46-90.27,111.08,0,63.91,56.21,115.72,125.53,115.72a136.34,136.34,0,0,0,29-3.11C1117.05,389.37,1158.22,343.54,1158.22,288.84Z" transform="translate(428.97 974.7)"/><path class="cls-12" d="M535.91-223.94c0-3.6-.15-7.16-.41-10.7-6.42-88.17-91.59-158-195.73-158-108.32,0,2.94,126.84-99,177.83-83.32,41.66-9.27,159.52,99,159.52q9.56,0,18.87-.78a218.54,218.54,0,0,0,73.37-19C493.83-103.44,535.91-159.46,535.91-223.94Z" transform="translate(428.97 974.7)"/></g></g><text class="cls-25" transform="translate(462.89 2447.3)">TIPOGRAFÍA</text><text class="cls-25" transform="translate(461.43 1278.34)">LOGOTIPO</text><text class="cls-25" transform="translate(461.43 1672.7)">ISOTIPO</text><text class="cls-25" transform="translate(461.43 2091.84)">PALETA <tspan x="0" y="22.8">DE COLORES (RGB)</tspan></text><text class="cls-26" transform="translate(816.02 2421.93)">a b c d e f g h i j k l m n ñ o p q r <tspan x="0" y="36">s t u v w x y z </tspan></text><text class="cls-26" transform="translate(1214.52 2421.93)">A B C D E F G H I J K L M N Ñ O P Q <tspan x="0" y="36">R S T U V W X Y Z </tspan></text><text class="cls-26" transform="translate(816.02 2521.48)">1 2 3 4 5 6 7 8 9 0</text><rect class="cls-27" x="429.15" y="975.7" width="1200" height="115"/><text class="cls-28" transform="translate(462.74 1044.63)"><tspan xml:space="preserve">FELICITUP APP |  1.0 ELEMENTOS PRINCIPALES</tspan></text><line class="cls-27" x1="429.15" y1="1454.7" x2="1629.15" y2="1454.7"/><text class="cls-28" transform="translate(812.9 2363.3)">| Poppins</text><line class="cls-27" x1="429.21" y1="1878.86" x2="1629.21" y2="1878.86"/><line class="cls-27" x1="432.88" y1="2280.76" x2="1632.88" y2="2280.76"/><line class="cls-27" x1="654.15" y1="1090.7" x2="654.15" y2="2575.7"/><rect class="cls-29" x="1275.64" y="2028.98" width="113.3" height="113.3"/><text class="cls-5" transform="translate(1298.19 2172.81)">#EFEFEF</text><rect class="cls-30" x="1410.17" y="2028.98" width="113.3" height="113.3"/><text class="cls-5" transform="translate(1426.23 2172.81)">#969595</text><circle class="cls-9" cx="2474.27" cy="1617.88" r="244.92"/><g class="cls-31"><g class="cls-32"><path class="cls-4" d="M1106.7,1807.93c407.94,127.79,351,310,572.9,561.23,133.68,151.4,213.85-575.38,213.85-777.34s-163.73-365.7-365.69-365.7S914,1747.56,1106.7,1807.93Z" transform="translate(428.97 974.7)"/><circle class="cls-1" cx="3226.98" cy="1045.31" r="459.54"/><path class="cls-12" d="M1112.67,2427c0,147,148.63,266.18,332,266.18s332-119.17,332-266.18-4.6-338.36-187.93-338.36S1112.67,2280,1112.67,2427Z" transform="translate(428.97 974.7)"/><path class="cls-13" d="M1918.92,1458.13q-22.26,4.2-45,7.55,15.4-18.47,30.06-35.74Q1910.75,1444.05,1918.92,1458.13Z" transform="translate(428.97 974.7)"/><path class="cls-13" d="M1739.4-349.16c-2.44-3.42-4.9-6.76-7.38-10.06h17.81C1746.26-355.9,1742.77-352.56,1739.4-349.16Z" transform="translate(428.97 974.7)"/><path class="cls-13" d="M1068.76,774.34a409.28,409.28,0,0,0-46-9.58V609.39c28.92,51.06,59.26,99.41,90,142.5Q1090.18,762.32,1068.76,774.34Z" transform="translate(428.97 974.7)"/><path class="cls-13" d="M1022.79,1645.59v-32.53a613.32,613.32,0,0,0,53.28,32.53Z" transform="translate(428.97 974.7)"/><path class="cls-13" d="M2767.65,93A990.72,990.72,0,0,0,2802.6-.91c68.22,31.33,144.28,51.67,225,58.3V196.92a364.47,364.47,0,0,0-255.43-104C2770.68,92.9,2769.17,92.93,2767.65,93Z" transform="translate(428.97 974.7)"/><path class="cls-14" d="M2802.6-.91A990.72,990.72,0,0,1,2767.65,93c-113.33,4.23-288.93,165.57-389.27,318.07a191.86,191.86,0,0,0-33.42-20C2206.77,325.89,2173.08,114.42,1961,114.42q-10.26,0-21.33.59c49.57-79.66,62.8-152.44,10.64-194.23-111.68-89.49-156.52-193.62-210.95-269.94,3.37-3.4,6.86-6.74,10.43-10.06,103.21-96,287.59-160,497.9-160,84.57,0,164.93,10.36,237.53,29-.79,10.85-1.24,21.79-1.24,32.81C2484-259.74,2613-88,2802.6-.91Z" transform="translate(428.97 974.7)"/><path class="cls-4" d="M2890.4,812.25c-24.34,0-53.27,2.53-84,7.09-75.24-70.54-236.78-169.76-373.93-216.6,19.69-71.43,7.68-145.29-54.11-191.68C2478.72,258.56,2654.32,97.22,2767.65,93c1.52-.06,3-.09,4.52-.09a365.75,365.75,0,0,1,365.7,365.69c0,88.29-15.32,276.88-43.74,448.56A265.59,265.59,0,0,0,2890.4,812.25Z" transform="translate(428.97 974.7)"/><path class="cls-15" d="M1312.15-104.61c0,147.92-65.34,381.87-22.58,505.86-13.79,20.09-21.45,40-21.45,59.28,0,82.63,179.49,84.09,363.36,97.49-158.4,6.43-287.25,33.75-345.28,141.44a663.49,663.49,0,0,0-173.4,52.43c-30.75-43.09-61.09-91.44-90-142.5C903.54,398.8,808.51,142.29,808.51,20.19c0-247.28,196.27-447.74,438.38-447.74a429.71,429.71,0,0,1,126.78,19.05C1311.17-349.43,1312.15-240.84,1312.15-104.61Z" transform="translate(428.97 974.7)"/><path class="cls-4" d="M1631.48,558c156.13,11.38,315.42,31.38,370.66,117,51.93,80.49,110.1,119.15,166.7,129,4.54,118.66,53.5,292.55-196.44,381.13-110.19,39-118.05,141.64-68.45,244.79q-14.64,17.3-30.06,35.74c-25.76,3.81-51.93,6.88-78.34,9.32,34.14-91.52,11.62-185.63-95.09-239-312.75-156.38,28.44-545.31-303.73-545.31a699.79,699.79,0,0,0-110.53,8.75C1344.23,591.77,1473.08,564.45,1631.48,558Z" transform="translate(428.97 974.7)"/><path class="cls-16" d="M2215.65,613.11c-12,18.88-9.5,45.89,2.13,78.36-44.34,18.88-50.94,60.38-48.94,112.55-56.6-9.86-114.77-48.52-166.7-129-55.24-85.61-214.53-105.61-370.66-117-183.87-13.4-363.36-14.86-363.36-97.49,0-19.27,7.66-39.19,21.45-59.28,17.63,51.12,53.62,83.55,120.15,83.55,155,0,424.61-200.44,530-369.79q11.05-.58,21.33-.59c212,0,245.73,211.47,383.92,276.66a191.86,191.86,0,0,1,33.42,20c61.79,46.39,73.8,120.25,54.11,191.68C2333.86,569.05,2247.84,562.44,2215.65,613.11Z" transform="translate(428.97 974.7)"/><path class="cls-17" d="M1950.35-79.22c52.16,41.79,38.93,114.57-10.64,194.23-105.38,169.35-375,369.79-530,369.79-66.53,0-102.52-32.43-120.15-83.55-42.76-124,22.58-357.94,22.58-505.86,0-136.23-1-244.82,61.52-303.89,33.35-31.52,84.74-49,164-49,98.29,0,150.39,39.8,194.32,98.24,2.48,3.3,4.94,6.64,7.38,10.06C1793.83-272.84,1838.67-168.71,1950.35-79.22Z" transform="translate(428.97 974.7)"/><path class="cls-18" d="M1972.4,1185.15c249.94-88.58,201-262.47,196.44-381.13-2-52.17,4.6-93.67,48.94-112.55C2276.15,854.42,2565,1155.24,2413.46,1260c-37.27,25.77-66.9,50.73-89.48,74.65-79.06,15.31-158.49,39.11-235.76,73.18-51.68,22.78-109,38.93-169.3,50.31q-8.16-14.06-15-28.19C1854.35,1326.79,1862.21,1224.2,1972.4,1185.15Z" transform="translate(428.97 974.7)"/><path class="cls-19" d="M3122.6,1372.82c-2.16,28.33-10.31,53.32-24,75.32a467.45,467.45,0,0,0-44.84-27.44C3085.21,1414.7,3107.24,1397.47,3122.6,1372.82Z" transform="translate(428.97 974.7)"/><path class="cls-12" d="M2413.46,1260c151.56-104.75-137.31-405.57-195.68-568.52-11.63-32.47-14.12-59.48-2.13-78.36,32.19-50.67,118.21-44.06,216.84-10.37,137.15,46.84,298.69,146.06,373.93,216.6-154.79,23-355.23,97.53-245.94,160,95.08,54.33,226.14,273.94,347.58,382.45-158.65-47.82-370-68.59-584.08-27.13C2346.56,1310.72,2376.19,1285.76,2413.46,1260Z" transform="translate(428.97 974.7)"/><path class="cls-12" d="M3053.72,1420.7c-40.58-22-89.86-42.12-145.66-58.93-121.44-108.51-252.5-328.12-347.58-382.45-109.29-62.45,91.15-137,245.94-160,30.71-4.56,59.64-7.09,84-7.09a266.22,266.22,0,0,1,266.18,266.19c0,101.11,8.53,226.16-34,294.38C3107.24,1397.47,3085.21,1414.7,3053.72,1420.7Z" transform="translate(428.97 974.7)"/><path class="cls-14" d="M1345.57,1115c0-161.37-116.86-297.56-276.81-340.64q21.42-12,44-22.45a663.49,663.49,0,0,1,173.4-52.43,699.79,699.79,0,0,1,110.53-8.75c332.17,0-9,388.93,303.73,545.31,106.71,53.35,129.23,147.46,95.09,239-345.23,31.92-729.32-42.2-729.32,79.17,0,53.78,54.51,104.1,149.31,147.11a647.75,647.75,0,0,1-139.47-55.69,613.32,613.32,0,0,1-53.28-32.53c-61.21-41.85-112.71-93.74-151.16-152.78a417.62,417.62,0,0,0,89,9.55C1173.23,1469.83,1345.57,1311,1345.57,1115Z" transform="translate(428.97 974.7)"/><path class="cls-20" d="M1066.23,1554.17c0-121.37,384.09-47.25,729.32-79.17,26.41-2.44,52.58-5.51,78.34-9.32q22.74-3.37,45-7.55c60.32-11.38,117.62-27.53,169.3-50.31,77.27-34.07,156.7-57.87,235.76-73.18,214.07-41.46,425.43-20.69,584.08,27.13,55.8,16.81,105.08,37,145.66,58.93a467.45,467.45,0,0,1,44.84,27.44c49.23,34.39,77.4,71.4,77.4,106,0,158.33-472.28,286.69-1054.87,286.69-384.69,0-721.26-56-905.55-139.58C1120.74,1658.27,1066.23,1608,1066.23,1554.17Z" transform="translate(428.97 974.7)"/><path class="cls-16" d="M575.72,1115c0-196,172.34-354.85,384.92-354.85a419.34,419.34,0,0,1,62.15,4.63,409.28,409.28,0,0,1,46,9.58c160,43.08,276.81,179.27,276.81,340.64,0,196-172.34,354.85-384.93,354.85a417.62,417.62,0,0,1-89-9.55C702,1423.25,575.72,1282.71,575.72,1115Z" transform="translate(428.97 974.7)"/><path class="cls-12" d="M2484-457.46c0-11,.45-22,1.24-32.81,19.68-270.37,280.85-484.43,600.2-484.43,332.17,0-9,388.93,303.73,545.31,255.51,127.75,28.44,489.17-303.73,489.17q-29.28,0-57.86-2.39c-80.72-6.63-156.78-27-225-58.3C2613-88,2484-259.74,2484-457.46Z" transform="translate(428.97 974.7)"/></g><circle class="cls-1" cx="959.47" cy="1130.63" r="242.15"/></g><path class="cls-4" d="M2033.76,613l-39.71-39.71a42.7,42.7,0,0,1,0-60.38h0a42.7,42.7,0,0,1,60.39,0l83.15,83.15a66.65,66.65,0,0,1,0,94.26l-83.15,83.16a42.71,42.71,0,0,1-60.39,0h0a42.71,42.71,0,0,1,0-60.39l39.71-39.7A42.71,42.71,0,0,0,2033.76,613Z" transform="translate(428.97 974.7)"/><path class="cls-21" d="M1994.05,773.47a42.71,42.71,0,0,0,60.39,0l8.38-8.39a87,87,0,0,0,0-123L2033.76,613a42.71,42.71,0,0,1,0,60.39l-39.71,39.7a42.71,42.71,0,0,0,0,60.39Z" transform="translate(428.97 974.7)"/><path class="cls-4" d="M1993.3,650l-8.94,8.93a9.63,9.63,0,0,0,0,13.6h0a9.61,9.61,0,0,0,13.59,0l18.72-18.72a15,15,0,0,0,0-21.22L1998,613.86a9.6,9.6,0,0,0-13.59,0h0a9.61,9.61,0,0,0,0,13.59l8.94,8.94A9.61,9.61,0,0,1,1993.3,650Z" transform="translate(428.97 974.7)"/><path class="cls-21" d="M1984.36,613.86a9.6,9.6,0,0,1,13.59,0l1.89,1.88a19.57,19.57,0,0,1,0,27.69L1993.3,650a9.61,9.61,0,0,0,0-13.59l-8.94-8.94a9.61,9.61,0,0,1,0-13.59Z" transform="translate(428.97 974.7)"/></svg>