<svg id="Capa_1" data-name="Capa 1" xmlns="http://www.w3.org/2000/svg" xmlns:xlink="http://www.w3.org/1999/xlink" viewBox="0 0 500 156.23"><defs><style>.cls-1,.cls-2{fill:none;}.cls-2{font-size:143.72px;font-family:OmnesMedium;}.cls-3{letter-spacing:-0.01em;}.cls-4{clip-path:url(#clip-path);}.cls-5{clip-path:url(#clip-path-2);}.cls-6{fill:#f26f55;}.cls-7{fill:#c48cbd;}.cls-8{fill:#efa397;}.cls-9{clip-path:url(#clip-path-3);}.cls-10{clip-path:url(#clip-path-4);}.cls-11{fill:#07a3e0;}.cls-12{fill:#f29c4e;}</style><clipPath id="clip-path"><path class="cls-1" d="M145-1038.9c0-137.85,112.15-250,250-250s250,112.15,250,250-112.15,250-250,250S145-901,145-1038.9Zm15.7,0c0,129.19,105.11,234.3,234.3,234.3s234.3-105.11,234.3-234.3S524.2-1273.21,395-1273.21,160.7-1168.1,160.7-1038.9Z"/></clipPath><clipPath id="clip-path-2"><rect class="cls-1" x="-627.5" y="-2041.31" width="2004.81" height="2004.81" transform="translate(749.8 -2077.81) rotate(-180)"/></clipPath><clipPath id="clip-path-3"><text class="cls-2" transform="translate(0 120.29)"><tspan class="cls-3">f</tspan><tspan x="40.1" y="0">elicitUp</tspan></text></clipPath><clipPath id="clip-path-4"><rect class="cls-1" x="-108.63" y="-467.16" width="718.61" height="718.61"/></clipPath></defs><g class="cls-4"><g class="cls-5"><path class="cls-6" d="M-543.6,125.85c407.94,127.79,351,310,572.91,561.23C163,838.47,243.15,111.7,243.15-90.27S79.43-456-122.54-456-736.33,65.48-543.6,125.85Z"/><path class="cls-7" d="M-304.73-567.11c0-161.37-116.85-297.56-276.8-340.63q21.4-12,44-22.46a664,664,0,0,1,173.4-52.43,701.07,701.07,0,0,1,110.53-8.75c332.17,0-9,388.93,303.73,545.31,106.71,53.35,129.23,147.47,95.1,239C-200-175.16-584.07-249.29-584.07-127.92c0,53.79,54.51,104.11,149.32,147.12A647.86,647.86,0,0,1-574.23-36.5,608.25,608.25,0,0,1-627.5-69c-61.22-41.84-112.72-93.74-151.16-152.78a416.91,416.91,0,0,0,89,9.56C-477.06-212.25-304.73-371.13-304.73-567.11Z"/><path class="cls-8" d="M-584.07-127.92c0-121.37,384.09-47.24,729.33-79.16,26.4-2.45,52.57-5.51,78.33-9.33q22.75-3.37,45-7.55c60.31-11.37,117.61-27.52,169.29-50.31,77.28-34.07,156.71-57.86,235.77-73.18,214.06-41.46,425.42-20.68,584.08,27.13,55.79,16.81,105.07,37,145.65,58.94a463.45,463.45,0,0,1,44.84,27.44c49.24,34.38,77.4,71.39,77.4,106,0,158.34-472.28,286.69-1054.86,286.69-384.69,0-721.27-56-905.55-139.57C-529.56-23.81-584.07-74.13-584.07-127.92Z"/></g></g><g class="cls-9"><g class="cls-10"><path class="cls-6" d="M579.91,309.64C433.68,355.45,454.08,420.75,374.55,510.81c-47.92,54.27-76.65-206.24-76.65-278.63A131.08,131.08,0,0,1,429,101.1C501.37,101.1,649,288,579.91,309.64Z"/><path class="cls-6" d="M391.8-138.38c-56,4.08-113.06,11.25-132.86,41.94-18.61,28.84-39.46,42.7-59.75,46.24C197.56-7.67,180,54.66,269.6,86.41c39.5,14,42.32,50.77,24.53,87.74q5.26,6.21,10.78,12.81c9.24,1.37,18.62,2.47,28.08,3.35-12.24-32.81-4.16-66.54,34.09-85.67,112.1-56-10.2-195.46,108.87-195.46a250,250,0,0,1,39.61,3.14C494.76-126.28,448.58-136.07,391.8-138.38Z"/><path class="cls-6" d="M269.6,86.41C180,54.66,197.56-7.67,199.19-50.2c.72-18.7-1.65-33.58-17.54-40.34C160.73-32.14,57.18,75.69,111.51,113.24c13.36,9.23,24,18.18,32.07,26.75a396.18,396.18,0,0,1,84.51,26.23c18.52,8.17,39.06,14,60.68,18q2.93-5,5.36-10.11C311.92,137.18,309.1,100.41,269.6,86.41Z"/><path class="cls-11" d="M111.51,113.24C57.18,75.69,160.73-32.14,181.65-90.54c4.17-11.65,5.06-21.33.76-28.09-11.54-18.16-42.37-15.8-77.73-3.72C55.53-105.56-2.38-70-29.35-44.71,26.14-36.47,98-9.75,58.81,12.63,24.73,32.11-22.25,110.82-65.78,149.72-8.91,132.58,66.85,125.13,143.58,140,135.49,131.42,124.87,122.47,111.51,113.24Z"/><path class="cls-11" d="M-118,170.84c14.55-7.87,32.21-15.1,52.21-21.12C-22.25,110.82,24.73,32.11,58.81,12.63,98-9.75,26.14-36.47-29.35-44.71a211.83,211.83,0,0,0-30.1-2.54,95.2,95.2,0,0,0-73,34,95,95,0,0,0-22.39,61.4c0,36.24-3.06,81.06,12.18,105.52C-137.18,162.52-129.28,168.69-118,170.84Z"/><path class="cls-12" d="M494.28,61.26c0-57.84,41.89-106.66,99.22-122.1q-7.66-4.3-15.78-8a238.19,238.19,0,0,0-62.16-18.79A250,250,0,0,0,476-90.82c-119.07,0,3.23,139.41-108.87,195.46-38.25,19.13-46.33,52.86-34.09,85.67,123.75,11.44,261.42-15.13,261.42,28.37,0,19.28-19.54,37.32-53.52,52.73a232,232,0,0,0,50-20A218.05,218.05,0,0,0,610,239.79,197.07,197.07,0,0,0,664.16,185a149.83,149.83,0,0,1-31.9,3.42C556.06,188.45,494.28,131.51,494.28,61.26Z"/><path class="cls-8" d="M594.41,218.68c0-43.5-137.67-16.93-261.42-28.37-9.46-.88-18.84-2-28.08-3.35q-8.15-1.2-16.14-2.7c-21.62-4.08-42.16-9.87-60.68-18A396.18,396.18,0,0,0,143.58,140c-76.73-14.86-152.49-7.41-209.36,9.73-20,6-37.66,13.25-52.21,21.12a168.14,168.14,0,0,0-16.07,9.84c-17.65,12.32-27.75,25.59-27.75,38,0,56.76,169.29,102.76,378.11,102.76,137.89,0,258.54-20.06,324.59-50C574.87,256,594.41,238,594.41,218.68Z"/><path class="cls-12" d="M770.23,61.26c0-70.25-61.77-127.2-138-127.2A151.14,151.14,0,0,0,610-64.28a146.32,146.32,0,0,0-16.48,3.44C536.17-45.4,494.28,3.42,494.28,61.26c0,70.25,61.78,127.19,138,127.19a149.83,149.83,0,0,0,31.9-3.42C725,171.75,770.23,121.38,770.23,61.26Z"/></g></g></svg>