<svg width="17" height="17" viewBox="0 0 17 17" fill="none" xmlns="http://www.w3.org/2000/svg">
<g clip-path="url(#clip0_156_243)">
<path d="M11.7344 5.98926H5.2744C5.20465 5.98926 5.15234 6.04157 5.15234 6.11131V10.9934C5.15234 11.0631 5.20465 11.1154 5.2744 11.1154H6.74773V12.4841C6.74773 12.5364 6.77388 12.58 6.82619 12.5975C6.84363 12.5975 6.86106 12.6062 6.8785 12.6062C6.91337 12.6062 6.93952 12.5975 6.96568 12.5713L8.56106 11.1154H11.7431C11.8129 11.1154 11.8652 11.0631 11.8652 10.9934V6.11131C11.8652 6.04157 11.8129 5.98926 11.7431 5.98926H11.7344ZM6.8785 10.8713H5.40516V6.23336H11.6123V10.8713H8.50875C8.50875 10.8713 8.44773 10.88 8.42157 10.9062L7.00055 12.2052V10.9934C7.00055 10.9236 6.94824 10.8713 6.8785 10.8713Z" fill="#0083F1" stroke="#0083F1" stroke-width="0.5" stroke-miterlimit="10"/>
<path d="M8.49998 16.913C3.86203 16.913 0.0871582 13.1382 0.0871582 8.50022C0.0871582 3.86227 3.86203 0.0874023 8.49998 0.0874023C13.1379 0.0874023 16.9128 3.86227 16.9128 8.50022C16.9128 13.1382 13.1379 16.913 8.49998 16.913ZM8.49998 0.540736C4.11485 0.540736 0.540491 4.11509 0.540491 8.50022C0.540491 12.8854 4.11485 16.4597 8.49998 16.4597C12.8851 16.4597 16.4595 12.8854 16.4595 8.50022C16.4595 4.11509 12.8938 0.540736 8.49998 0.540736Z" fill="#0083F1"/>
<path d="M8.5 17C3.80974 17 0 13.1903 0 8.5C0 3.80974 3.80974 0 8.5 0C13.1903 0 17 3.80974 17 8.5C17 13.1903 13.1903 17 8.5 17ZM8.5 0.174359C3.90564 0.174359 0.174359 3.90564 0.174359 8.5C0.174359 13.0944 3.91436 16.8344 8.50872 16.8344C13.1031 16.8344 16.8344 13.0944 16.8344 8.5C16.8344 3.90564 13.0944 0.174359 8.5 0.174359ZM8.5 16.5467C4.06256 16.5467 0.453333 12.9374 0.453333 8.5C0.453333 4.06256 4.06256 0.453333 8.5 0.453333C12.9374 0.453333 16.5467 4.06256 16.5467 8.5C16.5467 12.9374 12.9374 16.5467 8.5 16.5467ZM8.5 0.627692C4.15846 0.627692 0.627692 4.15846 0.627692 8.5C0.627692 12.8415 4.15846 16.3723 8.5 16.3723C12.8415 16.3723 16.3723 12.8415 16.3723 8.5C16.3723 4.15846 12.8415 0.627692 8.5 0.627692Z" fill="#0083F1"/>
</g>
<defs>
<clipPath id="clip0_156_243">
<rect width="17" height="17" fill="white"/>
</clipPath>
</defs>
</svg>
