<svg width="17" height="17" viewBox="0 0 17 17" fill="none" xmlns="http://www.w3.org/2000/svg">
<g clip-path="url(#clip0_156_223)">
<path d="M7.90726 8.2297C6.67803 8.2297 5.66675 7.22714 5.66675 5.99791C5.66675 4.76868 6.66931 3.76611 7.90726 3.76611C9.14521 3.76611 10.1391 4.76868 10.1391 5.99791C10.1391 7.22714 9.13649 8.2297 7.90726 8.2297ZM7.90726 4.01022C6.81752 4.01022 5.91957 4.89945 5.91957 5.99791C5.91957 7.09637 6.8088 7.9856 7.90726 7.9856C9.00572 7.9856 9.89495 7.09637 9.89495 5.99791C9.89495 4.89945 9.00572 4.01022 7.90726 4.01022Z" fill="#0083F1"/>
<path d="M7.90715 8.28207C6.65176 8.28207 5.62305 7.25335 5.62305 5.99797C5.62305 4.74258 6.65176 3.71387 7.90715 3.71387C9.16253 3.71387 10.1913 4.73387 10.1913 5.99797C10.1913 7.26207 9.16253 8.28207 7.90715 8.28207ZM7.90715 3.80976C6.70407 3.80976 5.71894 4.79489 5.71894 5.99797C5.71894 7.20105 6.70407 8.18617 7.90715 8.18617C9.11023 8.18617 10.0954 7.20105 10.0954 5.99797C10.0954 4.79489 9.11023 3.80976 7.90715 3.80976ZM7.90715 8.02925C6.79125 8.02925 5.87587 7.11387 5.87587 5.99797C5.87587 4.88207 6.79125 3.96669 7.90715 3.96669C9.02305 3.96669 9.93843 4.87335 9.93843 5.99797C9.93843 7.12259 9.02305 8.02925 7.90715 8.02925ZM7.90715 4.06258C6.84356 4.06258 5.97176 4.93438 5.97176 5.99797C5.97176 7.06156 6.84356 7.93335 7.90715 7.93335C8.97074 7.93335 9.84253 7.06156 9.84253 5.99797C9.84253 4.93438 8.97074 4.06258 7.90715 4.06258Z" fill="#0083F1"/>
<path d="M10.7057 12.8766H5.21336C5.14362 12.8766 5.09131 12.8243 5.09131 12.7546V10.854C5.09131 9.26738 6.38156 7.98584 7.95951 7.98584C9.53746 7.98584 10.8277 9.2761 10.8277 10.854V12.7546C10.8277 12.8243 10.7754 12.8766 10.7057 12.8766ZM5.34413 12.6238H10.5836V10.854C10.5836 9.40687 9.40669 8.23866 7.96823 8.23866C6.52977 8.23866 5.35285 9.41558 5.35285 10.854V12.6238H5.34413Z" fill="#0083F1"/>
<path d="M10.7057 12.9202H5.21342C5.11752 12.9202 5.03906 12.8417 5.03906 12.7458V10.8453C5.03906 9.2325 6.34675 7.9248 7.95958 7.9248C9.5724 7.9248 10.8801 9.2325 10.8801 10.8453V12.7458C10.8801 12.8417 10.8016 12.9202 10.7057 12.9202ZM7.95958 8.02942C6.39906 8.02942 5.13496 9.29352 5.13496 10.854V12.7545C5.13496 12.7545 5.16983 12.833 5.21342 12.833H10.7057C10.7057 12.833 10.7842 12.7981 10.7842 12.7545V10.854C10.7842 9.29352 9.52009 8.02942 7.95958 8.02942ZM10.575 12.6674H5.34419C5.34419 12.6674 5.3006 12.6499 5.3006 12.6238V10.854C5.3006 9.3807 6.49496 8.18634 7.96829 8.18634C9.44163 8.18634 10.636 9.3807 10.636 10.854V12.6238C10.636 12.6238 10.6185 12.6674 10.5924 12.6674H10.575ZM5.38778 12.5715H10.5314V10.8453C10.5314 9.42429 9.3806 8.27352 7.95958 8.27352C6.53855 8.27352 5.38778 9.42429 5.38778 10.8453V12.5715Z" fill="#0083F1"/>
<path d="M9.92112 8.70926C9.38061 8.70926 8.87497 8.50003 8.49138 8.11644C8.43907 8.06413 8.43907 7.98567 8.49138 7.94208C8.54369 7.89849 8.62215 7.88977 8.66574 7.94208C8.99702 8.27336 9.44164 8.45644 9.9124 8.45644C10.8888 8.45644 11.6821 7.66311 11.6821 6.6867C11.6821 5.71029 10.8888 4.91695 9.9124 4.91695C9.82523 4.91695 9.73805 4.91695 9.65087 4.93439C9.58112 4.94311 9.5201 4.89952 9.51138 4.82977C9.50266 4.76003 9.54625 4.69901 9.61599 4.69029C9.71189 4.67285 9.81651 4.67285 9.9124 4.67285C11.0283 4.67285 11.935 5.57952 11.935 6.69542C11.935 7.81131 11.0283 8.71798 9.9124 8.71798L9.92112 8.70926Z" fill="#0083F1"/>
<path d="M9.92122 8.75291C9.37199 8.75291 8.84891 8.53496 8.4566 8.15137C8.38686 8.08163 8.38686 7.97702 8.4566 7.90727C8.52635 7.83753 8.63096 7.83753 8.70071 7.90727C9.02327 8.22984 9.45917 8.41291 9.92122 8.41291C10.8715 8.41291 11.6387 7.63702 11.6387 6.69548C11.6387 5.75394 10.8628 4.97804 9.92122 4.97804C9.83404 4.97804 9.74686 4.97804 9.6684 4.99548C9.62481 4.99548 9.58122 4.99548 9.53763 4.96061C9.50276 4.93445 9.4766 4.89086 9.46789 4.84727C9.46789 4.80368 9.46789 4.75137 9.50276 4.7165C9.52891 4.68163 9.5725 4.65548 9.61609 4.64676C9.71199 4.62932 9.8166 4.62061 9.92122 4.62061C11.0633 4.62061 11.9874 5.54471 11.9874 6.68676C11.9874 7.82881 11.0633 8.75291 9.92122 8.75291ZM8.57866 7.94214C8.57866 7.94214 8.53507 7.94214 8.52635 7.9683C8.49148 8.00317 8.49148 8.04676 8.52635 8.08163C8.90122 8.4565 9.39814 8.65702 9.92122 8.65702C11.011 8.65702 11.8915 7.76778 11.8915 6.68676C11.8915 5.60573 11.0022 4.7165 9.92122 4.7165C9.82532 4.7165 9.72943 4.7165 9.63353 4.73394C9.61609 4.73394 9.58994 4.75137 9.58122 4.76881C9.5725 4.78625 9.56378 4.80368 9.56378 4.82984C9.56378 4.84727 9.58122 4.87343 9.59866 4.88214C9.61609 4.89086 9.63353 4.89958 9.65968 4.89958C9.74686 4.89086 9.83404 4.88214 9.92994 4.88214C10.9325 4.88214 11.7433 5.69291 11.7433 6.69548C11.7433 7.69804 10.9325 8.50881 9.92994 8.50881C9.44173 8.50881 8.9884 8.31702 8.6484 7.97702C8.63096 7.95958 8.61353 7.95086 8.59609 7.95086L8.57866 7.94214Z" fill="#0083F1"/>
<path d="M12.4319 12.8761H10.7057C10.636 12.8761 10.5837 12.8238 10.5837 12.7541C10.5837 12.6843 10.636 12.632 10.7057 12.632H12.3099V11.0541C12.3099 9.76382 11.2811 8.71766 10.017 8.71766C9.88626 8.71766 9.75549 8.72638 9.63344 8.75254C9.5637 8.76125 9.50267 8.71766 9.48524 8.64792C9.47652 8.57818 9.52011 8.51715 9.58985 8.49972C9.72934 8.47356 9.87754 8.46484 10.017 8.46484C11.4206 8.46484 12.5627 9.62433 12.5627 11.0541V12.7541C12.5627 12.8238 12.5104 12.8761 12.4406 12.8761H12.4319Z" fill="#0083F1"/>
<path d="M12.4318 12.9198H10.7057C10.6098 12.9198 10.5313 12.8413 10.5313 12.7454C10.5313 12.6495 10.6098 12.5711 10.7057 12.5711H12.2575V11.0454C12.2575 9.78132 11.2462 8.7526 10.0082 8.7526C9.87748 8.7526 9.75543 8.76132 9.63337 8.78747C9.53748 8.80491 9.4503 8.73516 9.43286 8.64798C9.43286 8.60439 9.43286 8.55209 9.45902 8.51721C9.48517 8.48234 9.52876 8.45619 9.57235 8.44747C9.71184 8.42132 9.86004 8.4126 10.0082 8.4126C11.438 8.4126 12.6062 9.59824 12.6062 11.0541V12.7541C12.6062 12.85 12.5277 12.9285 12.4318 12.9285V12.9198ZM10.7057 12.667C10.7057 12.667 10.6272 12.7018 10.6272 12.7454C10.6272 12.789 10.6621 12.8239 10.7057 12.8239H12.4318C12.4318 12.8239 12.5103 12.789 12.5103 12.7454V11.0454C12.5103 9.64183 11.3857 8.49978 10.0082 8.49978C9.86876 8.49978 9.72927 8.5085 9.58978 8.53465C9.57235 8.53465 9.55491 8.55209 9.53748 8.56952C9.52876 8.58696 9.52004 8.60439 9.52004 8.63055C9.52004 8.67414 9.57235 8.70029 9.61594 8.69157C9.74671 8.66542 9.87748 8.6567 10.0082 8.6567C11.2985 8.6567 12.3534 9.72901 12.3534 11.0454V12.6234C12.3534 12.6234 12.3359 12.667 12.3098 12.667H10.7057Z" fill="#0083F1"/>
<path d="M8.49998 16.913C3.86203 16.913 0.0871582 13.1382 0.0871582 8.50022C0.0871582 3.86227 3.86203 0.0874023 8.49998 0.0874023C13.1379 0.0874023 16.9128 3.86227 16.9128 8.50022C16.9128 13.1382 13.1379 16.913 8.49998 16.913ZM8.49998 0.540736C4.11485 0.540736 0.540491 4.11509 0.540491 8.50022C0.540491 12.8854 4.11485 16.4597 8.49998 16.4597C12.8851 16.4597 16.4595 12.8854 16.4595 8.50022C16.4595 4.11509 12.8938 0.540736 8.49998 0.540736Z" fill="#0083F1"/>
<path d="M8.5 17C3.80974 17 0 13.1903 0 8.5C0 3.80974 3.80974 0 8.5 0C13.1903 0 17 3.80974 17 8.5C17 13.1903 13.1903 17 8.5 17ZM8.5 0.174359C3.90564 0.174359 0.174359 3.90564 0.174359 8.5C0.174359 13.0944 3.91436 16.8256 8.50872 16.8256C13.1031 16.8256 16.8344 13.0856 16.8344 8.5C16.8344 3.91436 13.0944 0.174359 8.5 0.174359ZM8.5 16.5467C4.06256 16.5467 0.453333 12.9374 0.453333 8.5C0.453333 4.06256 4.06256 0.453333 8.5 0.453333C12.9374 0.453333 16.5467 4.06256 16.5467 8.5C16.5467 12.9374 12.9374 16.5467 8.5 16.5467ZM8.5 0.627692C4.15846 0.627692 0.627692 4.15846 0.627692 8.5C0.627692 12.8415 4.15846 16.3723 8.5 16.3723C12.8415 16.3723 16.3723 12.8415 16.3723 8.5C16.3723 4.15846 12.8415 0.627692 8.5 0.627692Z" fill="#0083F1"/>
</g>
<defs>
<clipPath id="clip0_156_223">
<rect width="17" height="17" fill="white"/>
</clipPath>
</defs>
</svg>
