<svg width="74" height="74" viewBox="0 0 74 74" fill="none" xmlns="http://www.w3.org/2000/svg">
<g clip-path="url(#clip0_156_393)">
<path d="M0.5 38.9002C0.5 37.4802 0.5 36.0702 0.5 34.6502C0.54 34.4002 0.59 34.1502 0.63 33.9002C0.86 32.3402 0.99 30.7602 1.32 29.2202C3.22 20.4802 7.71 13.3302 14.84 7.96018C23.63 1.32018 33.53 -0.889825 44.31 1.34018C53.06 3.15018 60.18 7.73018 65.58 14.8302C71.62 22.7702 73.96 31.7802 72.68 41.6602C71.84 48.1302 69.33 53.9502 65.29 59.0902C59.58 66.3502 52.14 70.7702 43.08 72.4602C41.69 72.7202 40.28 72.8502 38.89 73.0302H34.64C34.41 72.9902 34.18 72.9302 33.95 72.9002C32.41 72.6802 30.85 72.5702 29.34 72.2402C20.5 70.3102 13.29 65.7802 7.82 58.5402C4.28 53.8702 2.05 48.6302 1.04 42.8702C0.81 41.5502 0.68 40.2202 0.51 38.8902L0.5 38.9002ZM26.24 38.7502C24.1 36.7102 22.55 34.3802 21.73 31.6002C20.91 28.8202 20.84 26.0302 21.55 23.2202C22.27 20.4102 23.65 17.9702 25.72 15.9502C31.49 10.2902 40.21 9.84018 46.62 14.9002C49.58 17.2402 51.47 20.3202 52.16 24.0202C53.23 29.7602 51.49 34.6602 47.31 38.7602C55.55 42.2102 61.16 48.0802 64.24 56.4102C73.79 43.3702 73.09 23.3002 58.59 10.9502C45.02 -0.599825 24.4 0.230176 11.84 13.9202C-0.48 27.3502 1.23 45.7902 9.31 56.3602C12.38 48.0402 18.02 42.2002 26.24 38.7402V38.7502ZM36.74 70.5902C37.26 70.5902 37.78 70.6102 38.3 70.5902C38.91 70.5602 39.53 70.5302 40.14 70.4602C48.83 69.4902 56.11 65.7702 62 59.3002C62.32 58.9502 62.41 58.6502 62.26 58.1802C59.49 49.6702 53.92 43.8302 45.52 40.7302C45.22 40.6202 44.77 40.6602 44.48 40.8102C39.35 43.4902 34.24 43.5002 29.1 40.8302C28.79 40.6702 28.32 40.6302 28 40.7402C19.6 43.8502 14.04 49.6902 11.28 58.2102C11.14 58.6502 11.21 58.9302 11.52 59.2702C18.3 66.7002 26.73 70.4202 36.76 70.5902H36.74ZM36.79 40.3402C44.15 40.3102 50.07 34.3802 50.06 27.0602C50.05 19.7702 44.03 13.8002 36.73 13.8202C29.42 13.8402 23.39 19.8802 23.46 27.1202C23.53 34.4902 29.46 40.3602 36.79 40.3302V40.3402Z" fill="#78C9FF" stroke="#78C9FF" stroke-miterlimit="10"/>
</g>
<defs>
<clipPath id="clip0_156_393">
<rect width="73.53" height="73.53" fill="white"/>
</clipPath>
</defs>
</svg>
