<svg width="17" height="17" viewBox="0 0 17 17" fill="none" xmlns="http://www.w3.org/2000/svg">
<g clip-path="url(#clip0_95_1507)">
<path d="M8.5 16.9128C3.86205 16.9128 0.0871811 13.1379 0.0871811 8.49998C0.0871811 3.86203 3.86205 0.0871582 8.5 0.0871582C13.1379 0.0871582 16.9128 3.86203 16.9128 8.49998C16.9128 13.1379 13.1379 16.9128 8.5 16.9128ZM8.5 0.540491C4.11487 0.540491 0.540514 4.11485 0.540514 8.49998C0.540514 12.8851 4.11487 16.4595 8.5 16.4595C12.8851 16.4595 16.4595 12.8851 16.4595 8.49998C16.4595 4.11485 12.8938 0.540491 8.5 0.540491Z" fill="#F26F55"/>
<path d="M8.5 17C3.80974 17 0 13.1903 0 8.5C0 3.80974 3.80974 0 8.5 0C13.1903 0 17 3.80974 17 8.5C17 13.1903 13.1903 17 8.5 17ZM8.5 0.174359C3.90564 0.174359 0.174359 3.90564 0.174359 8.5C0.174359 13.0944 3.91436 16.8256 8.50872 16.8256C13.1031 16.8256 16.8344 13.0856 16.8344 8.5C16.8344 3.91436 13.0944 0.174359 8.5 0.174359ZM8.5 16.5467C4.06256 16.5467 0.453333 12.9374 0.453333 8.5C0.453333 4.06256 4.06256 0.453333 8.5 0.453333C12.9374 0.453333 16.5467 4.06256 16.5467 8.5C16.5467 12.9374 12.9374 16.5467 8.5 16.5467ZM8.5 0.627692C4.15846 0.627692 0.627692 4.15846 0.627692 8.5C0.627692 12.8415 4.15846 16.3723 8.5 16.3723C12.8415 16.3723 16.3723 12.8415 16.3723 8.5C16.3723 4.15846 12.8415 0.627692 8.5 0.627692Z" fill="#F26F55"/>
<path d="M12.3882 8.29945L6.2159 4.69022C6.14615 4.65534 6.05897 4.65534 5.98923 4.69022C5.91077 4.73381 5.86718 4.81227 5.86718 4.89073V12.1092C5.86718 12.1877 5.91077 12.2661 5.98923 12.3097C6.0241 12.3271 6.05897 12.3359 6.10256 12.3359C6.13744 12.3359 6.18103 12.3271 6.2159 12.3097L12.3882 8.70047C12.4579 8.65688 12.5015 8.57842 12.5015 8.49996C12.5015 8.4215 12.4579 8.34304 12.3882 8.29945ZM6.32923 11.7082V5.29175L11.8128 8.49996L6.32923 11.7082Z" fill="#F26F55"/>
<path d="M11.8564 8.43022L6.37282 5.2133C6.37282 5.2133 6.3118 5.19586 6.28564 5.2133C6.25949 5.23073 6.24205 5.25689 6.24205 5.29176V11.7082C6.24205 11.7082 6.25949 11.7692 6.28564 11.7866C6.28564 11.7953 6.3118 11.7953 6.32923 11.7953C6.34667 11.7953 6.35539 11.7953 6.37282 11.7866L11.8564 8.56971C11.8564 8.56971 11.9 8.52612 11.9 8.49996C11.9 8.47381 11.8826 8.43894 11.8564 8.43022ZM6.41641 11.56V5.43996L11.6472 8.49996L6.41641 11.56ZM11.8564 8.43022L6.37282 5.2133C6.37282 5.2133 6.3118 5.19586 6.28564 5.2133C6.25949 5.23073 6.24205 5.25689 6.24205 5.29176V11.7082C6.24205 11.7082 6.25949 11.7692 6.28564 11.7866C6.28564 11.7953 6.3118 11.7953 6.32923 11.7953C6.34667 11.7953 6.35539 11.7953 6.37282 11.7866L11.8564 8.56971C11.8564 8.56971 11.9 8.52612 11.9 8.49996C11.9 8.47381 11.8826 8.43894 11.8564 8.43022ZM6.41641 11.56V5.43996L11.6472 8.49996L6.41641 11.56ZM12.4318 8.22971L6.25949 4.62048C6.16359 4.55945 6.04154 4.55945 5.94564 4.62048C5.84103 4.67278 5.78872 4.7774 5.78872 4.89073V12.1092C5.78872 12.2225 5.84103 12.3271 5.94564 12.3795C5.98923 12.4056 6.04154 12.423 6.10257 12.423C6.15487 12.423 6.20718 12.4056 6.25949 12.3795L12.4318 8.77022C12.5277 8.71791 12.58 8.6133 12.58 8.49996C12.58 8.38663 12.5277 8.28201 12.4318 8.22971ZM5.95436 4.89073C5.95436 4.83842 5.98051 4.79483 6.0241 4.76868C6.05026 4.75125 6.07641 4.75125 6.10257 4.75125C6.12 4.75125 6.14616 4.75125 6.17231 4.76868L12.3446 8.37791C12.3882 8.40407 12.4144 8.44766 12.4144 8.49996C12.4144 8.55227 12.3882 8.59586 12.3446 8.62201L6.17231 12.2312C6.12872 12.2574 6.06769 12.2574 6.0241 12.2312C5.98051 12.2051 5.95436 12.1615 5.95436 12.1092V4.89073ZM6.32923 11.7953C6.32923 11.7953 6.35539 11.7953 6.37282 11.7866L11.8564 8.56971C11.8564 8.56971 11.9 8.52612 11.9 8.49996C11.9 8.47381 11.8826 8.43894 11.8564 8.43022L6.37282 5.2133C6.37282 5.2133 6.3118 5.19586 6.28564 5.2133C6.25949 5.23073 6.24205 5.25689 6.24205 5.29176V11.7082C6.24205 11.7082 6.25949 11.7692 6.28564 11.7866C6.28564 11.7953 6.3118 11.7953 6.32923 11.7953ZM6.41641 5.43996L11.6472 8.49996L6.41641 11.56V5.43996Z" fill="#F26F55"/>
<path d="M11.6472 8.49994L6.41641 11.5599V5.43994L11.6472 8.49994Z" fill="#F26F55"/>
</g>
<defs>
<clipPath id="clip0_95_1507">
<rect width="17" height="17" fill="white"/>
</clipPath>
</defs>
</svg>
