<svg width="17" height="17" viewBox="0 0 17 17" fill="none" xmlns="http://www.w3.org/2000/svg">
<g clip-path="url(#clip0_156_210)">
<path d="M8.49998 16.913C3.86203 16.913 0.0871582 13.1382 0.0871582 8.50022C0.0871582 3.86227 3.86203 0.0874023 8.49998 0.0874023C13.1379 0.0874023 16.9128 3.86227 16.9128 8.50022C16.9128 13.1382 13.1379 16.913 8.49998 16.913ZM8.49998 0.540736C4.11485 0.540736 0.540491 4.11509 0.540491 8.50022C0.540491 12.8854 4.11485 16.4597 8.49998 16.4597C12.8851 16.4597 16.4595 12.8854 16.4595 8.50022C16.4595 4.11509 12.8938 0.540736 8.49998 0.540736Z" fill="#0083F1"/>
<path d="M8.5 17C3.80974 17 0 13.1903 0 8.5C0 3.80974 3.80974 0 8.5 0C13.1903 0 17 3.80974 17 8.5C17 13.1903 13.1903 17 8.5 17ZM8.5 0.174359C3.90564 0.174359 0.174359 3.90564 0.174359 8.5C0.174359 13.0944 3.91436 16.8256 8.50872 16.8256C13.1031 16.8256 16.8344 13.0856 16.8344 8.5C16.8344 3.91436 13.0944 0.174359 8.5 0.174359ZM8.5 16.5467C4.06256 16.5467 0.453333 12.9374 0.453333 8.5C0.453333 4.06256 4.06256 0.453333 8.5 0.453333C12.9374 0.453333 16.5467 4.06256 16.5467 8.5C16.5467 12.9374 12.9374 16.5467 8.5 16.5467ZM8.5 0.627692C4.15846 0.627692 0.627692 4.15846 0.627692 8.5C0.627692 12.8415 4.15846 16.3723 8.5 16.3723C12.8415 16.3723 16.3723 12.8415 16.3723 8.5C16.3723 4.15846 12.8415 0.627692 8.5 0.627692Z" fill="#0083F1"/>
<path d="M12.3882 8.29945L6.21591 4.69022C6.14616 4.65534 6.05898 4.65534 5.98924 4.69022C5.91078 4.73381 5.86719 4.81227 5.86719 4.89073V12.1092C5.86719 12.1877 5.91078 12.2661 5.98924 12.3097C6.02411 12.3271 6.05898 12.3359 6.10257 12.3359C6.13744 12.3359 6.18103 12.3271 6.21591 12.3097L12.3882 8.70047C12.458 8.65688 12.5015 8.57842 12.5015 8.49996C12.5015 8.4215 12.458 8.34304 12.3882 8.29945ZM6.32924 11.7082V5.29175L11.8128 8.49996L6.32924 11.7082Z" fill="#0083F1"/>
<path d="M11.8565 8.43022L6.37292 5.2133C6.37292 5.2133 6.3119 5.19586 6.28574 5.2133C6.25959 5.23073 6.24215 5.25689 6.24215 5.29176V11.7082C6.24215 11.7082 6.25959 11.7692 6.28574 11.7866C6.28574 11.7953 6.3119 11.7953 6.32933 11.7953C6.34677 11.7953 6.35549 11.7953 6.37292 11.7866L11.8565 8.56971C11.8565 8.56971 11.9001 8.52612 11.9001 8.49996C11.9001 8.47381 11.8827 8.43894 11.8565 8.43022ZM6.41651 11.56V5.43996L11.6473 8.49996L6.41651 11.56ZM11.8565 8.43022L6.37292 5.2133C6.37292 5.2133 6.3119 5.19586 6.28574 5.2133C6.25959 5.23073 6.24215 5.25689 6.24215 5.29176V11.7082C6.24215 11.7082 6.25959 11.7692 6.28574 11.7866C6.28574 11.7953 6.3119 11.7953 6.32933 11.7953C6.34677 11.7953 6.35549 11.7953 6.37292 11.7866L11.8565 8.56971C11.8565 8.56971 11.9001 8.52612 11.9001 8.49996C11.9001 8.47381 11.8827 8.43894 11.8565 8.43022ZM6.41651 11.56V5.43996L11.6473 8.49996L6.41651 11.56ZM12.4319 8.22971L6.25959 4.62048C6.16369 4.55945 6.04164 4.55945 5.94574 4.62048C5.84113 4.67278 5.78882 4.7774 5.78882 4.89073V12.1092C5.78882 12.2225 5.84113 12.3271 5.94574 12.3795C5.98933 12.4056 6.04164 12.423 6.10266 12.423C6.15497 12.423 6.20728 12.4056 6.25959 12.3795L12.4319 8.77022C12.5278 8.71791 12.5801 8.6133 12.5801 8.49996C12.5801 8.38663 12.5278 8.28201 12.4319 8.22971ZM5.95446 4.89073C5.95446 4.83842 5.98061 4.79483 6.0242 4.76868C6.05036 4.75125 6.07651 4.75125 6.10266 4.75125C6.1201 4.75125 6.14625 4.75125 6.17241 4.76868L12.3447 8.37791C12.3883 8.40407 12.4145 8.44766 12.4145 8.49996C12.4145 8.55227 12.3883 8.59586 12.3447 8.62201L6.17241 12.2312C6.12882 12.2574 6.06779 12.2574 6.0242 12.2312C5.98061 12.2051 5.95446 12.1615 5.95446 12.1092V4.89073ZM6.32933 11.7953C6.32933 11.7953 6.35549 11.7953 6.37292 11.7866L11.8565 8.56971C11.8565 8.56971 11.9001 8.52612 11.9001 8.49996C11.9001 8.47381 11.8827 8.43894 11.8565 8.43022L6.37292 5.2133C6.37292 5.2133 6.3119 5.19586 6.28574 5.2133C6.25959 5.23073 6.24215 5.25689 6.24215 5.29176V11.7082C6.24215 11.7082 6.25959 11.7692 6.28574 11.7866C6.28574 11.7953 6.3119 11.7953 6.32933 11.7953ZM6.41651 5.43996L11.6473 8.49996L6.41651 11.56V5.43996Z" fill="#0083F1"/>
<path d="M11.6473 8.49994L6.4165 11.5599V5.43994L11.6473 8.49994Z" fill="#0083F1"/>
</g>
<defs>
<clipPath id="clip0_156_210">
<rect width="17" height="17" fill="white"/>
</clipPath>
</defs>
</svg>
